<svg width="80" height="80" viewBox="0 0 80 80" fill="none" xmlns="http://www.w3.org/2000/svg">
<rect x="1.5" y="1.5" width="77" height="77" rx="38.5" stroke="#D9D9D9" stroke-width="3"/>
<rect x="1.5" y="1.5" width="77" height="77" rx="38.5" stroke="#FF0000" stroke-width="3"/>
<rect x="1.5" y="1.5" width="77" height="77" rx="38.5" stroke="url(#paint0_radial_142_888)" stroke-opacity="0.5" stroke-width="3"/>
<path d="M60 49H20C20.3968 45.2798 21.6608 41.7129 23.685 38.6019C25.2407 36.1322 27.3277 34.0629 29.785 32.5537L30.4688 32.1658L27.1025 26.3244C26.9845 26.1263 26.9477 25.8883 27.0002 25.6624C27.0527 25.4366 27.1902 25.2413 27.3825 25.1194C27.4778 25.0617 27.5833 25.024 27.6929 25.0083C27.8024 24.9926 27.9139 24.9992 28.021 25.0279C28.128 25.0565 28.2285 25.1066 28.3167 25.1752C28.4049 25.2438 28.4791 25.3296 28.535 25.4277L31.9987 31.4232C34.5637 30.3731 37.3042 29.8502 40.065 29.8842C42.78 29.8508 45.4688 30.3724 47.9813 31.4232L51.4313 25.4277C51.4882 25.3289 51.5638 25.2429 51.6537 25.1747C51.7436 25.1065 51.8459 25.0575 51.9545 25.0307C52.0632 25.0038 52.1759 24.9997 52.2862 25.0184C52.3964 25.0372 52.5018 25.0785 52.5962 25.1399C52.6903 25.2005 52.7719 25.2795 52.8362 25.3724C52.9006 25.4654 52.9465 25.5704 52.9714 25.6816C52.9962 25.7928 52.9995 25.9079 52.981 26.0204C52.9626 26.1329 52.9227 26.2406 52.8638 26.3372L49.4975 32.1979L50.3312 32.6732C52.7795 34.2419 54.8481 36.3629 56.38 38.8756C58.294 41.9365 59.5298 45.3924 60 48.9987V49ZM47.5 41.3254C47.4998 41.5501 47.5427 41.7727 47.6263 41.9804C47.7098 42.188 47.8323 42.3768 47.9868 42.5358C48.1413 42.6948 48.3247 42.821 48.5267 42.9071C48.7286 42.9933 48.9451 43.0377 49.1637 43.0379C49.3824 43.038 49.5989 42.9939 49.801 42.9081C50.0031 42.8223 50.1867 42.6964 50.3414 42.5376C50.4962 42.3788 50.619 42.1903 50.7028 41.9827C50.7866 41.7752 50.8298 41.5527 50.83 41.328C50.8301 41.1033 50.7871 40.8807 50.7035 40.6731C50.6199 40.4655 50.4973 40.2768 50.3428 40.1178C50.1882 39.9589 50.0047 39.8327 49.8027 39.7467C49.6008 39.6606 49.3843 39.6163 49.1656 39.6162C48.947 39.6161 48.7304 39.6603 48.5284 39.7462C48.3264 39.8321 48.1428 39.9581 47.9881 40.1169C47.8334 40.2757 47.7107 40.4643 47.627 40.6719C47.5432 40.8795 47.5001 41.102 47.5 41.3267V41.3254ZM29.1663 41.3254C29.1659 41.7792 29.341 42.2146 29.653 42.5358C29.965 42.8569 30.3884 43.0375 30.83 43.0379C31.2716 43.0382 31.6952 42.8583 32.0077 42.5376C32.3202 42.2169 32.4959 41.7818 32.4963 41.328C32.4966 40.8742 32.3215 40.4388 32.0095 40.1176C31.6975 39.7965 31.2741 39.6159 30.8325 39.6155C30.6138 39.6154 30.3973 39.6595 30.1952 39.7453C29.9932 39.8311 29.8095 39.957 29.6548 40.1158C29.3423 40.4365 29.1666 40.8716 29.1663 41.3254Z" fill="#FF0000"/>
<defs>
<radialGradient id="paint0_radial_142_888" cx="0" cy="0" r="1" gradientUnits="userSpaceOnUse" gradientTransform="translate(44.0444 45.4386) rotate(112.523) scale(89.4549 280.858)">
<stop stop-color="white" stop-opacity="0.54"/>
<stop offset="1" stop-color="#5F0011"/>
</radialGradient>
</defs>
</svg>
