<svg width="88" height="88" viewBox="0 0 88 88" fill="none" xmlns="http://www.w3.org/2000/svg">
<g filter="url(#filter0_d_142_891)">
<rect x="5.5" y="1.5" width="77" height="77" rx="38.5" stroke="#D9D9D9" stroke-width="3"/>
<rect x="5.5" y="1.5" width="77" height="77" rx="38.5" stroke="#FF0000" stroke-width="3"/>
<rect x="5.5" y="1.5" width="77" height="77" rx="38.5" stroke="url(#paint0_radial_142_891)" stroke-opacity="0.5" stroke-width="3"/>
<path d="M34.6766 57.2533C33.827 56.7419 33.074 56.1101 32.4465 55.3821C31.7563 54.6307 31.1168 53.8423 30.5316 53.0213C29.1581 51.2011 28.0809 49.2118 27.3332 47.1144C26.435 44.678 26 42.3427 26 40.0587C26 37.5078 26.61 35.281 27.8032 33.4098C28.6877 31.9473 29.9881 30.7252 31.5698 29.8698C33.1028 29.0085 34.8641 28.5372 36.6683 28.5055C37.2999 28.5055 37.98 28.5883 38.7018 28.7467C39.2203 28.8794 39.8519 29.089 40.6235 29.3496C41.6052 29.692 42.1452 29.9015 42.3284 29.9526C42.9034 30.1427 43.3869 30.2255 43.7666 30.2255C44.0548 30.2255 44.4615 30.1427 44.9234 30.016C45.1833 29.9332 45.6735 29.787 46.3751 29.5153C47.07 29.2863 47.6168 29.0902 48.0517 28.944C48.7184 28.7661 49.3634 28.6017 49.9384 28.5189C50.6201 28.4216 51.312 28.3959 52.0002 28.4421C53.1928 28.5126 54.3675 28.7412 55.4867 29.1206C57.3169 29.787 58.7968 30.8273 59.8984 32.3062C59.4328 32.5658 58.9958 32.8652 58.5935 33.2003C57.7176 33.9027 56.9716 34.7273 56.3836 35.6428C55.6151 36.8939 55.2166 38.3033 55.2268 39.7346C55.2551 41.4925 55.7534 43.0408 56.7351 44.3795C57.4568 45.3718 58.3949 46.2203 59.4917 46.8732C60.0533 47.2155 60.5367 47.4506 61 47.6089C60.7832 48.218 60.5516 48.8076 60.2782 49.3923C59.6582 50.7036 58.9067 51.9607 58.0333 53.148C57.2549 54.17 56.6449 54.9314 56.1816 55.4382C55.4598 56.2117 54.7649 56.8025 54.0633 57.2143C53.2916 57.6772 52.38 57.9245 51.4534 57.9245C50.826 57.9463 50.1987 57.8776 49.595 57.721C49.0766 57.5627 48.5635 57.3909 48.0585 57.1948C47.5335 56.9766 46.9921 56.7922 46.4384 56.6429C45.0698 56.325 43.6348 56.3229 42.2651 56.6369C41.7035 56.783 41.1635 56.9536 40.6302 57.1631C39.8801 57.4482 39.3819 57.6394 39.0937 57.721C38.5187 57.8733 37.9221 57.9683 37.3188 58C36.3855 58 35.5156 57.7588 34.6537 57.2703L34.6766 57.2533ZM46.9852 27.2678C45.7651 27.8196 44.6002 28.0547 43.4434 27.978C43.2616 26.9243 43.4434 25.8462 43.9269 24.6658C44.3385 23.6657 44.9466 22.7413 45.722 21.937C46.5408 21.0904 47.5344 20.3965 48.647 19.8941C49.8321 19.3423 50.9619 19.0439 52.0419 19C52.182 20.1037 52.0419 21.1891 51.5935 22.3622C51.1785 23.3992 50.5715 24.3648 49.7984 25.2176C49.0093 26.0654 48.041 26.762 46.9502 27.2666L46.9852 27.2678Z" fill="#FF0000"/>
</g>
<defs>
<filter id="filter0_d_142_891" x="0" y="0" width="88" height="88" filterUnits="userSpaceOnUse" color-interpolation-filters="sRGB">
<feFlood flood-opacity="0" result="BackgroundImageFix"/>
<feColorMatrix in="SourceAlpha" type="matrix" values="0 0 0 0 0 0 0 0 0 0 0 0 0 0 0 0 0 0 127 0" result="hardAlpha"/>
<feOffset dy="4"/>
<feGaussianBlur stdDeviation="2"/>
<feComposite in2="hardAlpha" operator="out"/>
<feColorMatrix type="matrix" values="0 0 0 0 0 0 0 0 0 0 0 0 0 0 0 0 0 0 0.25 0"/>
<feBlend mode="normal" in2="BackgroundImageFix" result="effect1_dropShadow_142_891"/>
<feBlend mode="normal" in="SourceGraphic" in2="effect1_dropShadow_142_891" result="shape"/>
</filter>
<radialGradient id="paint0_radial_142_891" cx="0" cy="0" r="1" gradientUnits="userSpaceOnUse" gradientTransform="translate(48.0444 45.4386) rotate(112.523) scale(89.4549 280.858)">
<stop stop-color="white" stop-opacity="0.54"/>
<stop offset="1" stop-color="#5F0011"/>
</radialGradient>
</defs>
</svg>
