<svg width="270" height="100" viewBox="0 0 270 100" fill="none" xmlns="http://www.w3.org/2000/svg">
<path d="M36.6199 25.7049C36.6213 25.8016 36.6234 25.9024 36.6234 26.0004C36.6234 36.1075 28.423 44.3044 18.3117 44.3044C8.20044 44.3044 0 36.1075 0 26.0004C0 15.8934 8.19766 7.69644 18.3096 7.69644C18.367 7.69644 18.4268 7.69644 18.4842 7.69644C28.4264 7.69644 36.5173 15.6977 36.6213 25.6358L36.6199 25.7049Z" fill="#1B9DD9"/>
<path d="M36.62 74.2589C36.6228 74.3851 36.6249 74.5141 36.6249 74.642C36.6249 84.749 28.4244 92.946 18.3132 92.946C8.20191 92.946 0.00146484 84.749 0.00146484 74.642C0.00146484 64.535 8.19704 56.3397 18.3086 56.338C18.3671 56.3373 18.4269 56.3373 18.4843 56.3373C28.4199 56.3373 36.5063 64.3295 36.6196 74.2589H36.62Z" fill="#E6352B"/>
<path d="M159.365 35.718H134.38V28.5953H156.699V18.6339H134.38V11.6676H158.982V0.940059L121.627 0.939363V46.4637H159.365V35.718ZM80.2299 54.3704H60.2981V99.9993H73.1911V86.9901H79.568C91.1365 86.9901 99.5693 81.3299 99.5693 70.602C99.5693 60.2916 91.99 54.3704 80.2299 54.3704ZM79.3064 77.0107H73.1911V64.9763H79.2369C83.8884 64.9763 86.6767 67.066 86.6767 70.9674C86.6767 74.8688 83.8884 77.0107 79.3064 77.0107ZM117.828 54.3704L98.0007 99.9993H111.556L114.867 91.9181L132.847 91.9188L136.227 100L150.061 99.9993L130.251 54.4399L117.828 54.3704ZM118.7 82.0962L123.316 70.7758H124.571L129.118 82.0962H118.7ZM194.89 29.0653H199.961L205.1 29.2051C204.644 30.2324 204.012 31.177 203.236 31.9912C201.993 33.3261 200.506 34.422 198.863 35.2125V35.2132C197.017 36.0636 195.003 36.5079 192.968 36.5079C192.831 36.5079 192.692 36.5048 192.556 36.5013C192.533 36.502 192.507 36.502 192.484 36.502C185.509 36.502 179.852 30.8477 179.852 23.8759C179.852 17.1599 185.116 11.6165 191.825 11.2668C191.85 11.2661 191.883 11.2661 191.909 11.2661C196.032 11.2661 200.009 12.7999 203.062 15.5676L210.623 6.65063C205.648 2.36648 199.288 0 192.716 0C192.404 0 192.079 0.00660866 191.771 0.016343C177.345 0.016343 166.717 10.4658 166.717 23.6843C166.717 37.6169 177.554 47.3693 192.033 47.3693C192.133 47.3707 192.247 47.3707 192.348 47.3707C199.572 47.3707 206.586 44.9076 212.225 40.402L212.226 19.8876H194.925L194.89 29.0653ZM237.786 0.904249L217.993 46.4289H231.548L234.859 38.3654H252.804L256.184 46.4289H270L250.208 0.904249H237.786ZM238.639 28.6126L243.204 17.4669H244.58L249.075 28.6126H238.639ZM197.922 70.0447C197.934 69.8017 197.942 69.5524 197.942 69.308C197.942 65.5478 196.457 61.9367 193.811 59.2636C190.675 56.1983 185.762 54.3697 178.653 54.3697L156.664 54.3704V99.9993H169.557V86.0671H175.202L184.576 99.8602H199.455L188.356 83.9773C194.096 81.9268 197.927 76.4899 197.927 70.3986C197.927 70.2811 197.925 70.1612 197.924 70.0447H197.922ZM178.147 76.2274H169.644V65.3079L178.077 65.3072C182.398 65.3072 185.046 67.049 185.046 70.7063C185.046 74.3633 182.45 76.2274 178.147 76.2274ZM209.333 54.3704V99.9993H222.279V54.3704H209.333Z" fill="white"/>
<path d="M87.1984 20.9848H85.1774L78.1908 1.026H60.3152V46.4982H73.4871V22.1338H74.8981L82.8603 44.5301H89.4289L97.3907 22.1338H98.8028V46.4982H111.991V1.026H94.1851L87.1984 20.9848Z" fill="white"/>
</svg>
