<svg width="80" height="30" viewBox="0 0 80 30" fill="none" xmlns="http://www.w3.org/2000/svg">
<path d="M10.8504 7.71148C10.8508 7.74047 10.8514 7.77072 10.8514 7.80013C10.8514 10.8322 8.42164 13.2913 5.4257 13.2913C2.42977 13.2913 0 10.8322 0 7.80013C0 4.76803 2.42894 2.30893 5.42509 2.30893C5.44209 2.30893 5.45982 2.30893 5.47682 2.30893C8.42267 2.30893 10.82 4.70931 10.8508 7.69072L10.8504 7.71148Z" fill="#1B9DD9"/>
<path d="M10.8505 22.2777C10.8513 22.3155 10.8519 22.3542 10.8519 22.3926C10.8519 25.4247 8.42213 27.8838 5.42619 27.8838C2.43026 27.8838 0.000488281 25.4247 0.000488281 22.3926C0.000488281 19.3605 2.42881 16.9019 5.42485 16.9014C5.44217 16.9012 5.45989 16.9012 5.4769 16.9012C8.42079 16.9012 10.8168 19.2989 10.8504 22.2777H10.8505Z" fill="#E6352B"/>
<path d="M47.2189 10.7154H39.816V8.57858H46.4292V5.59018H39.816V3.50029H47.1054V0.282018L36.0373 0.281809V13.9391H47.2189V10.7154ZM23.7714 16.3111H17.8657V29.9998H21.6859V26.097H23.5753C27.0031 26.097 29.5017 24.399 29.5017 21.1806C29.5017 18.0875 27.256 16.3111 23.7714 16.3111ZM23.4978 23.1032H21.6859V19.4929H23.4772C24.8555 19.4929 25.6816 20.1198 25.6816 21.2902C25.6816 22.4606 24.8555 23.1032 23.4978 23.1032ZM34.9118 16.3111L29.0369 29.9998H33.0534L34.0342 27.5754L39.3617 27.5756L40.3633 30L44.4622 29.9998L38.5926 16.332L34.9118 16.3111ZM35.17 24.6288L36.5379 21.2327H36.9096L38.257 24.6288H35.17ZM57.7449 8.71959H59.2473L60.7701 8.76152C60.6351 9.06971 60.4478 9.35309 60.2178 9.59735C59.8496 9.99785 59.409 10.3266 58.922 10.5638V10.564C58.3753 10.8191 57.7783 10.9524 57.1756 10.9524C57.1347 10.9524 57.0936 10.9514 57.0534 10.9504C57.0466 10.9506 57.0388 10.9506 57.032 10.9506C54.9653 10.9506 53.2893 9.25432 53.2893 7.16276C53.2893 5.14796 54.8488 3.48496 56.8368 3.38004C56.8442 3.37983 56.8538 3.37983 56.8617 3.37983C58.0832 3.37983 59.2617 3.83998 60.1662 4.67029L62.4067 1.99519C60.9326 0.709945 59.0479 0 57.1006 0C57.0084 0 56.9122 0.0019826 56.8209 0.00490289C52.5463 0.00490289 49.3974 3.13974 49.3974 7.10529C49.3974 11.2851 52.6084 14.2108 56.8983 14.2108C56.9281 14.2112 56.9617 14.2112 56.9916 14.2112C59.1322 14.2112 61.2105 13.4723 62.8812 12.1206L62.8815 5.96627H57.7552L57.7449 8.71959ZM70.4548 0.271275L64.5903 13.9287H68.6066L69.5875 11.5096H74.9047L75.9062 13.9287H79.9999L74.1354 0.271275H70.4548ZM70.7077 8.5838L72.0601 5.24006H72.4679L73.7998 8.5838H70.7077ZM58.6432 21.0134C58.6469 20.9405 58.6491 20.8657 58.6491 20.7924C58.6491 19.6643 58.2093 18.581 57.4254 17.7791C56.496 16.8595 55.0402 16.3109 52.934 16.3109L46.4187 16.3111V29.9998H50.2389V25.8201H51.9114L54.6889 29.9581H59.0975L55.809 25.1932C57.5098 24.5781 58.6448 22.947 58.6448 21.1196C58.6448 21.0843 58.6442 21.0484 58.6438 21.0134H58.6432ZM52.784 22.8682H50.2647V19.5924L52.7633 19.5922C54.0436 19.5922 54.8281 20.1147 54.8281 21.2119C54.8281 22.309 54.059 22.8682 52.784 22.8682ZM62.0245 16.3111V29.9998H65.8603V16.3111H62.0245Z" fill="white"/>
<path d="M25.8375 6.29548H25.2387L23.1686 0.307831H17.8721V13.9495H21.7749V6.64018H22.193L24.5521 13.3591H26.4984L28.8574 6.64018H29.2758V13.9495H33.1835V0.307831H27.9076L25.8375 6.29548Z" fill="white"/>
</svg>
